<svg width="226" height="44" viewBox="0 0 226 44" fill="none" xmlns="http://www.w3.org/2000/svg">
<path fill-rule="evenodd" clip-rule="evenodd" d="M40.7526 9.90724C44.0468 9.96737 44.0096 10.1297 46.1696 8.74301C47.6479 7.80262 49.0952 6.81426 50.509 5.77951C52.716 4.16186 52.9373 3.47751 49.0273 2.60434C45.8449 1.89353 44.8803 1.63735 41.5127 3.55689C36.8209 6.23173 23.0967 15.8342 9.12594 29.17C5.52741 29.8038 2.56391 31.1809 1.40089 32.0264C0.236655 32.8743 0.152465 33.0932 1.29505 34.7794C2.85617 37.0814 2.91631 37.1332 5.50215 35.8907C6.87806 35.2281 8.91546 34.0374 10.7147 32.6602C18.6527 31.1809 36.3278 31.0751 58.1307 37.2125C60.0634 37.7574 60.5986 38.058 59.1891 34.9899C57.8396 32.0517 57.9984 32.2104 54.2146 31.2855C40.1512 27.8446 25.1089 27.3695 16.43 28.215C25.2135 20.9145 32.0738 15.0934 40.7526 9.90724Z" fill="black"/>
<path fill-rule="evenodd" clip-rule="evenodd" d="M61.0773 5.1445C59.5282 5.55222 54.9386 6.94377 52.9277 7.5788C50.9167 8.21384 50.7243 8.21504 50.8109 10.1189C50.9167 12.4474 51.1284 12.4474 52.5043 11.9182C53.8802 11.389 60.5745 9.30831 62.5061 8.75626C63.9878 8.3329 64.0167 7.92518 63.7762 6.53364C63.419 4.46978 63.0894 4.61531 61.0773 5.1445ZM45.4395 13.2412C43.9313 14.4319 38.0573 19.5915 34.6439 23.4811C33.7118 24.5431 33.6914 24.1955 34.5646 26.8944C34.9795 28.1765 35.3572 30.0708 37.1841 28.0058C39.0098 25.9407 47.1859 19.1153 48.7735 17.8452C50.3611 16.5751 50.3767 16.3274 49.0116 13.9556C47.5046 11.3373 46.9477 12.0505 45.4395 13.2412Z" fill="black"/>
<path fill-rule="evenodd" clip-rule="evenodd" d="M77.3347 1.89107C73.0482 2.12921 69.7924 4.4312 65.1102 8.55891C62.7008 10.6761 60.3521 12.8615 58.0671 15.1125C55.2804 14.3788 52.9063 13.6211 52.4095 13.401C51.6951 13.0835 51.2982 13.1629 51.457 14.1948C51.6927 15.7295 52.0968 17.2172 54.8354 18.3995C52.628 20.7132 50.4953 23.097 48.4406 25.5472C47.5638 26.5924 47.5674 26.7355 48.7581 28.5636C49.8526 30.2414 50.4407 29.9287 51.1395 29.1974C53.516 26.7126 56.6491 23.2969 60.1358 19.8524C62.3981 20.3347 65.0008 20.6281 66.4465 20.8145C65.8604 21.5515 65.3004 22.3089 64.7675 23.0853C63.8065 24.4924 63.9737 25.4666 65.0056 27.1324C66.0375 28.8006 67.3076 30.2282 71.1178 28.72C74.9268 27.2118 78.2607 24.9098 79.0557 23.6385C79.8495 22.3696 79.9289 22.1303 77.9444 22.6872C75.9599 23.244 73.4198 24.4323 69.4508 24.9892C70.0089 23.9223 71.0493 22.5982 72.2688 21.2571C75.6136 21.4087 80.5038 21.3377 84.5329 19.3532C87.1128 18.082 86.5968 15.7812 85.0874 13.5586C83.5804 11.336 82.071 9.74839 77.4682 11.6535C74.8234 12.748 72.1016 14.7878 69.6457 17.2269C67.82 17.0092 65.1956 16.7037 63.7512 16.4138C66.9504 13.496 70.318 10.7839 73.6026 8.87522C76.8403 6.99418 78.6035 7.28764 79.2386 8.79584C79.6679 9.81454 80.4593 10.1609 81.3024 9.51025C82.1756 8.83433 82.7709 7.60516 82.6916 6.33509C82.5111 3.41972 80.6638 1.70585 77.3347 1.89107ZM79.9434 14.4823C82.9598 13.2122 84.5858 15.7211 81.359 16.4956C79.6643 16.9021 77.9468 17.3375 76.1752 17.4554C77.6329 16.1925 79.1989 14.7962 79.9434 14.4823ZM146.482 3.66267C146.027 4.02107 144.065 6.01757 141.45 8.7345C138 9.22881 134.485 9.79529 130.924 10.4363C128.39 10.8922 128.92 11.3877 129.445 13.0823C129.868 14.4594 130.222 15.0151 131.667 14.6699C132.966 14.3584 134.305 14.0685 135.66 13.7859C131.195 16.4246 123.708 20.3888 117.084 24.1954C119.374 21.8267 121.739 19.5324 124.176 17.3159C125.233 16.3633 124.915 16.0458 123.858 14.2465C122.705 12.2873 122.587 11.7064 121.105 12.8694C119.626 14.0337 112.216 21.8657 108.194 26.3109C107.19 27.4222 107.559 28.3219 108.935 29.6978C110.311 31.0737 110.628 31.497 113.061 30.1211C115.437 28.7801 126.397 22.2987 132.782 17.8559C128.849 22.0269 125.204 25.9405 123.621 27.688C122.618 28.7969 122.882 29.1698 124.257 30.4386C125.686 31.7592 125.951 32.2379 128.385 30.8644C130.49 29.6737 142.153 21.5879 149.214 16.5461C146.294 19.2907 142.673 22.965 140.117 26.3121C139.205 27.5076 139.271 27.7939 140.647 29.3827C142.022 30.9702 142.34 31.0761 143.609 29.806C144.88 28.5348 152.183 22.0798 158.744 19.328C155.676 23.6674 153.877 25.7842 152.923 26.9496C151.972 28.1126 152.395 28.7212 154.194 30.1235C155.653 31.2625 155.806 31.0869 157.593 29.9515C160.238 28.2738 163.355 27.0674 166.454 25.7793C166.621 27.854 167.607 30.2282 169.524 30.2282C171.809 30.2282 180.423 25.3331 188.723 19.5505C189.376 20.3876 190.126 21.0046 190.798 21.5362C187.606 22.9794 184.716 24.4311 182.738 25.5725C181.136 26.4986 180.939 26.418 181.681 28.0056C182.421 29.5931 182.097 29.7555 183.375 29.9107C194.117 31.2216 198.364 27.7939 198.364 24.407C198.364 22.9181 197.495 21.8886 196.626 21.1441C198.555 20.2168 201.292 19.2967 203.673 18.3947C204.481 21.5626 208.442 21.832 208.747 23.9584C209.006 25.7673 203.044 26.5238 200.715 26.1005C198.387 25.6771 199.207 27.0073 200.61 28.2172C202.157 29.5535 202.507 30.3569 205.796 30.1223C210.451 29.7916 215.001 28.0056 215.001 25.0433C215.001 20.9144 210.174 19.1945 209.394 17.5275C208.765 16.1817 210.769 15.5034 213.31 15.94C214.316 17.1559 214.076 17.1667 216.287 16.7734C217.058 16.6404 217.826 16.4884 218.589 16.3176C219.165 16.1793 219.106 16.1793 218.979 15.4637C218.899 14.9814 218.79 14.5043 218.654 14.0349C218.336 12.9235 218.282 12.7648 211.721 12.2356C207.581 11.9024 203.948 13.8388 203.566 16.8023C201.064 17.5768 197.639 18.6268 194.87 19.773C191.96 17.3688 192.122 15.8209 195.346 15.8209C197.885 15.8209 199.391 16.0458 199.99 16.1516C201.338 16.3898 201.816 15.887 201.575 14.3524C201.373 13.0438 201.39 13.0258 200.345 12.5663C199.354 12.1298 197.131 11.7076 195.966 11.7076C189.168 11.7076 186.519 14.9549 187.864 18.1361C184.333 20.2457 176.206 24.2327 174.287 25.0433C172.48 25.8022 171.447 26.4673 171.867 23.7588C177.033 22.0209 185.398 19.1801 185.398 16.575C185.398 13.294 182.647 12.4473 179.682 12.4473C172.741 12.4473 167.937 18.6845 166.728 23.0973C165.412 23.5483 163.364 24.021 161.814 24.5117C162.898 23.0299 164.261 20.1627 164.987 18.373C165.73 16.5473 165.73 16.5209 164.67 15.4348C163.588 14.3247 163.533 14.3512 162.447 14.564C160.756 14.8936 157.366 16.4691 155.144 17.9497C156.626 16.4691 156.838 16.1504 157.475 15.4108C158.109 14.6699 157.687 14.1395 156.627 13.0811C155.413 11.8664 155.38 11.4586 154.424 12.078C150.813 14.0781 141.46 19.7321 132.406 24.9338C134.602 22.6691 141.057 16.332 145.408 12.0985C157.09 10.4604 170.254 9.91797 184.161 10.9643C186.522 11.1411 185.643 10.2235 184.481 8.74172C183.316 7.25998 182.997 6.76566 180.988 6.62494C172.076 6.00314 161.489 6.37958 149.974 7.65326C150.462 6.99898 150.107 6.5191 149.237 5.03736C148.082 3.08055 147.964 2.49964 146.482 3.66267ZM184.41 27.6387C186.362 26.3795 190.281 24.5213 192.561 23.2512C194.316 25.1611 191.481 26.97 184.41 27.6387ZM181.162 15.1029C183.811 15.6333 180.243 17.7729 172.942 20.7773C175.007 17.6731 178.84 14.6374 181.162 15.1029Z" fill="black"/>
<path fill-rule="evenodd" clip-rule="evenodd" d="M132.874 5.43067C132.098 3.45701 132.021 3.42334 131.011 3.42334C117.992 3.42334 106.337 4.79564 94.5707 6.91483C92.4636 7.29489 92.7847 7.67975 93.5965 9.34071C94.4276 11.0413 95.0686 11.0786 95.9105 10.9487C97.4668 10.6991 99.02 10.4309 100.57 10.1441C98.767 11.7419 97.0103 13.3911 95.302 15.0897C93.421 15.3495 91.5486 15.6684 89.6877 16.0459C87.8776 16.4187 88.0664 16.5534 88.6858 18.3539C89.1537 19.7154 89.458 20.1988 90.2157 20.0678L90.5248 20.0172C86.7061 24.1089 83.0848 28.3605 80.5302 31.8556C79.6077 33.1172 79.4622 33.7655 80.286 36.0579C81.2626 38.7784 81.6427 38.9023 82.7997 37.3809C86.1481 32.9741 92.5453 25.5281 98.7947 18.9949C102.818 18.6991 107.085 18.4802 112.559 18.7015C114.264 18.77 114.222 18.159 113.372 15.9148C112.634 13.97 112.443 13.8136 111.385 13.8232C109.323 13.8413 106.569 13.9628 103.538 14.1997C105.823 11.9783 107.963 10.0431 109.783 8.61187C113.127 8.23061 117.915 7.85777 121.551 7.88904C122.385 9.378 122.916 9.38281 124.292 9.18316C125.671 8.9835 129.324 8.59382 131.393 8.1861C133.61 7.75312 133.701 7.53904 132.874 5.43067Z" fill="black"/>
<path fill-rule="evenodd" clip-rule="evenodd" d="M40.2716 8.03101C43.5658 8.08995 43.5297 8.25351 45.6898 6.86678C47.1683 5.92667 48.6156 4.93831 50.0292 3.90329C52.235 2.28563 52.4563 1.60129 48.5475 0.728116C45.3651 0.0173104 44.4005 -0.238869 41.0329 1.68067C36.3423 4.35551 22.6169 13.958 8.64613 27.2949C5.0476 27.9288 2.0841 29.3059 0.919872 30.1514C-0.245561 30.9969 -0.328548 31.2182 0.814033 32.902C2.37516 35.2064 2.4353 35.2581 5.02234 34.0157C6.39825 33.353 8.43565 32.1623 10.2337 30.7852C18.1716 29.3059 35.8468 29.2 57.6496 35.3375C59.5812 35.8799 60.1176 36.183 58.708 33.1149C57.3586 30.1767 57.5173 30.3354 53.7336 29.4105C39.6702 25.9671 24.6278 25.4945 15.949 26.34C24.7337 19.0383 31.5928 13.2171 40.2716 8.03101Z" fill="#CF4044"/>
<path fill-rule="evenodd" clip-rule="evenodd" d="M60.5963 3.26804C59.0472 3.67456 54.4576 5.06612 52.4467 5.70116C50.4357 6.3362 50.2433 6.3386 50.3299 8.24131C50.4357 10.5698 50.6474 10.5698 52.0233 10.0418C53.3992 9.51259 60.0935 7.43187 62.0251 6.87982C63.5069 6.45646 63.5357 6.04874 63.2952 4.65719C62.9392 2.59331 62.6084 2.73884 60.5963 3.26804ZM44.9586 11.3648C43.4504 12.5555 37.5763 17.7152 34.163 21.6048C33.2309 22.6668 33.2104 22.3192 34.0836 25.0181C34.4997 26.3002 34.8774 28.1945 36.7031 26.1295C38.5301 24.0644 46.7049 17.2389 48.2925 15.9688C49.8801 14.6987 49.8957 14.451 48.5306 12.0792C47.0236 9.45967 46.4668 10.1729 44.9586 11.3648Z" fill="#CF4044"/>
<path fill-rule="evenodd" clip-rule="evenodd" d="M76.8532 0.0136302C72.5679 0.251767 69.3122 2.55376 64.6288 6.68147C62.2197 8.79903 59.871 10.9844 57.5857 13.2351C54.799 12.5002 52.4236 11.7437 51.9281 11.5236C51.2137 11.2061 50.8168 11.2855 50.9755 12.3174C51.2113 13.8532 51.6154 15.3398 54.3552 16.5221C52.1479 18.8354 50.0148 21.2184 47.9591 23.6674C47.0823 24.7149 47.086 24.8581 48.2766 26.6838C49.3711 28.3628 49.9592 28.0513 50.658 27.32C53.0358 24.8352 56.1677 21.4183 59.6556 17.9737C61.9179 18.456 64.5193 18.7495 65.9662 18.9359C65.3801 19.6729 64.8201 20.4303 64.2872 21.2066C63.3262 22.6138 63.4934 23.5892 64.5254 25.255C65.5573 26.9231 66.8274 28.3507 70.6376 26.8425C74.4478 25.3343 77.7817 23.0324 78.5755 21.7623C79.3693 20.4922 79.4487 20.2541 77.4642 20.8097C75.4797 21.3642 72.9396 22.5549 68.9706 23.1117C69.5299 22.0449 70.569 20.7195 71.7898 19.3797C75.1345 19.53 80.0248 19.4603 84.0527 17.4758C86.6337 16.2045 86.1165 13.9038 84.6083 11.6812C83.1001 9.45854 81.5919 7.87096 76.9879 9.77605C74.3431 10.8705 71.6202 12.9103 69.1642 15.3494C67.3397 15.1317 64.7154 14.8262 63.2709 14.5364C66.4702 11.6186 69.8378 8.90649 73.1224 6.99778C76.3601 5.11674 78.1245 5.4102 78.7583 6.9184C79.1877 7.9371 79.9803 8.28348 80.8222 7.63281C81.6965 6.95809 82.2919 5.72772 82.2113 4.45765C82.0297 1.54228 80.1823 -0.171588 76.8532 0.0136302ZM79.4619 12.606C82.4783 11.336 84.1044 13.8436 80.8775 14.6194C79.1829 15.0259 77.4666 15.4613 75.695 15.5791C77.1515 14.3151 78.7186 12.9187 79.4619 12.606ZM146.003 1.78643C145.548 2.14484 143.584 4.14134 140.971 6.85827C137.518 7.35259 134.004 7.92027 130.445 8.56011C127.911 9.01594 128.441 9.51025 128.963 11.2061C129.387 12.582 129.74 13.1388 131.186 12.7937C132.485 12.4834 133.824 12.1923 135.179 11.9109C130.713 14.5496 123.226 18.5126 116.605 22.3191C118.894 19.9503 121.259 17.6559 123.695 15.4396C124.755 14.4871 124.438 14.1684 123.378 12.3703C122.227 10.4123 122.107 9.83017 120.627 10.9944C119.146 12.1586 111.736 19.9907 107.715 24.4359C106.711 25.5472 107.08 26.4469 108.456 27.8228C109.832 29.1987 110.149 29.622 112.584 28.2461C114.96 26.9051 125.918 20.4237 132.303 15.9808C128.373 20.1519 124.725 24.0631 123.145 25.813C122.139 26.9219 122.403 27.2948 123.778 28.5636C125.208 29.8842 125.472 30.3629 127.906 28.987C130.011 27.7987 141.676 19.7141 148.735 14.6699C145.815 17.4145 142.194 21.0888 139.64 24.4371C138.726 25.6326 138.792 25.9189 140.168 27.5076C141.544 29.0964 141.861 29.2011 143.133 27.931C144.401 26.6597 151.704 20.2048 158.265 17.453C155.197 21.7924 153.398 23.9091 152.446 25.0722C151.493 26.2376 151.916 26.8461 153.715 28.2485C155.177 29.3875 155.329 29.2095 157.117 28.0765C159.761 26.3987 162.879 25.1924 165.975 23.9043C166.144 25.979 167.128 28.3532 169.045 28.3532C171.33 28.3532 179.944 23.4581 188.244 17.6743C188.897 18.5114 189.646 19.1283 190.321 19.6599C187.129 21.1032 184.237 22.5549 182.262 23.6963C180.657 24.6223 180.462 24.5418 181.202 26.1293C181.944 27.7169 181.618 27.8793 182.896 28.0344C193.638 29.343 197.885 25.9177 197.885 22.5308C197.885 21.0407 197.016 20.0123 196.147 19.2679C198.076 18.3406 200.812 17.4205 203.194 16.5185C204.002 19.6852 207.965 19.9546 208.268 22.081C208.527 23.8911 202.567 24.6476 200.236 24.2242C197.908 23.8009 198.728 25.1311 200.131 26.341C201.678 27.6772 202.028 28.4782 205.317 28.2461C209.975 27.9154 214.525 26.1293 214.525 23.1646C214.525 19.0381 209.695 17.3183 208.915 15.6513C208.286 14.3055 210.292 13.6271 212.831 14.0637C213.839 15.2797 213.6 15.2905 215.808 14.8972C216.579 14.7636 217.346 14.6116 218.11 14.4414C218.686 14.3019 218.627 14.3019 218.5 13.5875C218.42 13.1052 218.311 12.6281 218.175 12.1586C217.857 11.0473 217.803 10.8886 211.242 10.3594C207.101 10.025 203.469 11.9626 203.089 14.9261C200.585 15.7006 197.16 16.7506 194.391 17.8956C191.483 15.4913 191.643 13.9447 194.867 13.9447C197.406 13.9447 198.912 14.1696 199.511 14.2742C200.859 14.5123 201.337 14.0096 201.099 12.4749C200.894 11.1664 200.911 11.1483 199.868 10.6889C198.875 10.2523 196.652 9.82897 195.489 9.82897C188.689 9.82897 186.039 13.0763 187.385 16.2587C183.854 18.3682 175.727 22.3564 173.808 23.1646C172.001 23.926 170.971 24.5887 171.39 21.8826C176.554 20.1434 184.921 17.3026 184.921 14.6988C184.921 11.4178 182.168 10.571 179.206 10.571C172.262 10.571 167.458 16.8083 166.249 21.2211C164.933 21.6721 162.887 22.1447 161.334 22.6355C162.419 21.1537 163.784 18.2864 164.511 16.4968C165.251 14.6699 165.251 14.6446 164.191 13.5586C163.108 12.4485 163.054 12.4749 161.968 12.6866C160.28 13.0174 156.889 14.5917 154.668 16.0735C156.147 14.5917 156.361 14.2742 156.996 13.5333C157.63 12.7924 157.208 12.2633 156.148 11.2049C154.934 9.98893 154.901 9.58241 153.945 10.2006C150.334 12.2007 140.983 17.8547 131.927 23.0576C134.123 20.7929 140.578 14.4558 144.929 10.2235C156.614 8.58536 169.775 8.04174 183.685 9.0881C186.043 9.2661 185.166 8.34723 184.002 6.86548C182.838 5.38374 182.518 4.88943 180.509 4.74872C171.597 4.12691 161.01 4.50336 149.495 5.77703C149.986 5.12275 149.631 4.64407 148.758 3.15992C147.603 1.20311 147.485 0.620999 146.003 1.78643ZM183.931 25.7601C185.881 24.5033 189.799 22.6451 192.082 21.3738C193.837 23.2837 191.002 25.0926 183.931 25.7601ZM180.68 13.2242C183.332 13.7546 179.761 15.8943 172.461 18.8986C174.525 15.7956 178.359 12.7612 180.68 13.2242Z" fill="#CF4044"/>
<path fill-rule="evenodd" clip-rule="evenodd" d="M132.392 3.55321C131.619 1.57955 131.542 1.54468 130.529 1.54468C117.511 1.54468 105.857 2.91698 94.0895 5.03617C91.9836 5.41502 92.3035 5.8023 93.1153 7.46205C93.9476 9.16269 94.5862 9.20117 95.4293 9.07008C96.8702 8.84637 98.4301 8.56614 100.089 8.26546C98.2856 9.86266 96.5293 11.5119 94.822 13.211C92.941 13.4708 91.0686 13.7897 89.2077 14.1672C87.3976 14.5412 87.5876 14.6747 88.2058 16.4752C88.6737 17.8367 88.9768 18.319 89.7369 18.1891L90.0448 18.1386C86.2261 22.229 82.6048 26.4818 80.0514 29.9769C79.1289 31.2386 78.9834 31.8868 79.806 34.1792C80.7826 36.8998 81.1627 37.0236 82.3197 35.5022C85.6681 31.0954 92.0653 23.6494 98.3135 17.1163C102.337 16.8204 106.603 16.6015 112.077 16.8228C113.782 16.8925 113.742 16.2816 112.89 14.0373C112.153 12.0925 111.962 11.9349 110.903 11.9458C108.843 11.9638 106.088 12.0853 103.057 12.3222C105.341 10.1008 107.482 8.16563 109.301 6.7344C112.646 6.35314 117.433 5.9803 121.072 6.01157C121.906 7.50053 122.435 7.50535 123.811 7.30449C125.189 7.10484 128.843 6.71636 130.912 6.30864C133.127 5.87566 133.22 5.66158 132.392 3.55321Z" fill="#CF4044"/>
<path fill-rule="evenodd" clip-rule="evenodd" d="M103.736 40.8388C103.462 41.2261 102.944 41.825 102.54 41.825C102.202 41.825 102.059 41.552 102.059 41.0709C102.059 40.3168 102.527 36.6004 102.683 36.159C102.462 36.2227 102.254 36.2769 102.032 36.3394V36.1325L103.54 35.4302C103.293 36.6377 102.838 40.1989 102.838 40.8099C102.838 41.0853 102.903 41.1743 103.02 41.1743C103.111 41.1743 103.293 41.0312 103.604 40.7065L103.736 40.8388ZM103.347 33.0656C103.502 33.0656 103.788 33.157 103.788 33.6622C103.788 34.0398 103.593 34.3008 103.281 34.3008C103.073 34.3008 102.813 34.195 102.813 33.7271C102.814 33.2087 103.086 33.0656 103.347 33.0656ZM110.105 40.9939C109.74 41.3692 109.312 41.825 108.831 41.825C108.403 41.825 108.325 41.4089 108.325 40.9278C108.325 40.0702 108.897 37.0827 108.897 36.6665C108.897 36.509 108.832 36.4693 108.754 36.4693C107.96 36.4693 106.102 39.9151 105.829 41.6157L105.114 41.6951C105.335 39.8092 105.646 37.8356 105.841 36.1843C105.62 36.236 105.413 36.2877 105.191 36.3394V36.1325L106.776 35.4302C106.542 36.5342 106.321 38.1194 106.152 39.4593H106.178C106.646 38.0689 108.206 35.56 109.271 35.56C109.635 35.56 109.739 35.7549 109.739 36.1963C109.739 36.7808 109.103 40.0041 109.103 40.7726C109.103 41.0192 109.194 41.1743 109.35 41.1743C109.531 41.1743 109.752 40.9795 109.935 40.8099L110.105 40.9939ZM111.64 35.7693H112.199L112.42 34.0518L113.213 33.7536L112.94 35.7693H114.045V36.159H112.888C112.525 38.7833 112.42 39.7972 112.42 40.5634C112.42 41.0565 112.537 41.1743 112.771 41.1743C113.044 41.1743 113.278 40.9278 113.733 40.4226L113.903 40.5778C113.474 41.214 113.046 41.825 112.421 41.825C112.032 41.825 111.642 41.4606 111.642 40.8905C111.642 40.1111 112.018 37.2234 112.149 36.159H111.642V35.7693H111.64ZM118.24 40.2001C117.732 40.917 116.889 41.8262 115.955 41.8262C114.836 41.8262 114.654 40.84 114.654 39.9536C114.654 37.4194 116.46 35.4314 117.747 35.4314C118.318 35.4314 118.578 35.8848 118.578 36.4837C118.578 37.862 116.875 39.0588 115.536 39.3679C115.506 39.614 115.494 39.862 115.499 40.1099C115.499 40.8893 115.772 41.3054 116.253 41.3054C116.929 41.3054 117.656 40.5261 118.06 40.0438L118.24 40.2001ZM117.265 36.082C116.966 36.082 116.745 36.1337 116.473 36.3923C115.966 36.8878 115.642 38.1615 115.576 39.0046C116.823 38.6546 117.799 37.642 117.799 36.6533C117.797 36.2769 117.577 36.082 117.265 36.082ZM119.644 36.1337L121.229 35.4314C121.049 36.3372 120.893 37.2476 120.761 38.1615H120.786C121.188 37.1861 121.956 35.4314 122.982 35.4314C123.138 35.4314 123.281 35.4566 123.475 35.4975L123.32 36.2769H123.034C122.137 36.2769 121.552 37.1861 121.018 38.4189C120.668 39.2247 120.41 40.8496 120.279 41.6157L119.564 41.6951C119.786 39.8092 120.097 37.8356 120.292 36.1843L119.641 36.3394V36.1337H119.644ZM128.274 41.0456C127.988 41.3319 127.52 41.825 127.119 41.825C126.648 41.825 126.637 41.3836 126.637 40.9422C126.637 40.395 126.766 39.173 126.872 38.2902L126.844 38.265C126.391 39.6156 125.494 41.8262 124.364 41.8262C123.585 41.8262 123.337 41.0204 123.337 40.1376C123.337 37.7069 125.001 35.4326 126.716 35.4326C127.054 35.4326 127.289 35.5095 127.47 35.5613L127.977 35.3027C127.756 36.8337 127.418 39.6409 127.418 40.7859C127.418 41.0589 127.443 41.2417 127.598 41.2417C127.729 41.2417 128.015 40.9687 128.131 40.8917L128.274 41.0456ZM124.648 41.0456C125.56 41.0456 127.12 36.8482 127.12 36.1855C127.12 36.0568 126.716 36.0159 126.455 36.0159C126.028 36.0159 125.637 36.0929 125.325 36.4428C124.637 37.2222 124.118 39.1213 124.118 40.1352C124.117 40.7594 124.257 41.0456 124.648 41.0456ZM132.59 39.784C132.355 40.4744 131.419 41.825 130.445 41.825C129.471 41.825 129.107 40.6956 129.107 39.5254C129.107 37.5241 130.472 35.4314 132.094 35.4314C132.329 35.4314 132.498 35.4566 132.668 35.5083L132.459 36.2107C132.252 36.1855 132.017 36.1337 131.667 36.1446C131.056 36.1446 130.899 36.236 130.615 36.6774C130.262 37.2222 129.887 38.55 129.887 39.3667C129.887 40.1725 130.042 41.1094 130.627 41.1094C131.421 41.1094 132.109 40.1977 132.356 39.7046L132.59 39.784ZM134.044 35.7693H134.603L134.824 34.0518L135.618 33.7536L135.345 35.7693H136.449V36.159H135.291C134.929 38.7833 134.823 39.7972 134.823 40.5634C134.823 41.0565 134.941 41.1743 135.176 41.1743C135.449 41.1743 135.681 40.9278 136.136 40.4226L136.306 40.5778C135.879 41.214 135.449 41.825 134.824 41.825C134.435 41.825 134.045 41.4606 134.045 40.8905C134.045 40.1111 134.423 37.2234 134.553 36.159H134.045V35.7693H134.044ZM139.138 40.8388C138.863 41.2261 138.345 41.825 137.943 41.825C137.605 41.825 137.462 41.552 137.462 41.0709C137.462 40.3168 137.93 36.6004 138.085 36.159C137.864 36.2227 137.658 36.2769 137.437 36.3394V36.1325L138.945 35.4302C138.696 36.6377 138.242 40.1989 138.242 40.8099C138.242 41.0853 138.306 41.1743 138.423 41.1743C138.514 41.1743 138.696 41.0312 139.007 40.7065L139.138 40.8388ZM138.749 33.0656C138.904 33.0656 139.19 33.157 139.19 33.6622C139.19 34.0398 138.995 34.3008 138.683 34.3008C138.473 34.3008 138.215 34.195 138.215 33.7271C138.216 33.2087 138.488 33.0656 138.749 33.0656ZM139.983 36.1337L141.425 35.4314C141.425 37.2631 141.605 39.4857 141.841 40.8508C142.555 40.0053 143.765 37.8633 143.765 36.9251C143.765 36.5234 143.585 36.4056 143.063 36.1337L143.556 35.4314C144.012 35.5348 144.48 35.9124 144.48 36.444C144.48 37.6937 142.582 40.5525 141.816 41.6963L141.256 41.825C140.881 40.0955 140.581 36.8879 140.581 36.1855L139.984 36.3406V36.1337H139.983ZM148.587 40.2001C148.079 40.917 147.234 41.8262 146.299 41.8262C145.181 41.8262 145.001 40.84 145.001 39.9536C145.001 37.4194 146.807 35.4314 148.091 35.4314C148.665 35.4314 148.923 35.8848 148.923 36.4837C148.923 37.862 147.222 39.0588 145.883 39.3679C145.852 39.6139 145.839 39.8619 145.844 40.1099C145.844 40.8893 146.117 41.3054 146.598 41.3054C147.274 41.3054 148.002 40.5261 148.404 40.0438L148.587 40.2001ZM147.612 36.082C147.311 36.082 147.09 36.1337 146.818 36.3923C146.31 36.8878 145.987 38.1615 145.921 39.0046C147.168 38.6546 148.143 37.642 148.143 36.6533C148.143 36.2769 147.922 36.082 147.612 36.082ZM152.876 35.7693C153.395 35.7693 153.616 35.5997 153.707 34.7422C153.877 32.8563 154.877 32.2189 155.8 32.2189H156.073C156.051 32.4603 156.011 32.6999 155.955 32.9357C155.774 32.9081 155.565 32.8696 155.332 32.8696C154.799 32.8696 154.681 33.1426 154.552 34.0915L154.343 35.637H155.578V36.159H154.267L153.669 40.6295C153.344 43.0867 153.006 43.5545 151.733 43.9959L151.682 43.7493C152.396 43.4366 152.709 42.6573 152.863 41.1888C153.045 39.5002 153.319 37.8079 153.528 36.159H152.877V35.7693H152.876ZM157.553 40.8388C157.28 41.2261 156.762 41.825 156.358 41.825C156.022 41.825 155.879 41.552 155.879 41.0709C155.879 40.3168 156.347 36.6004 156.502 36.159C156.281 36.2227 156.075 36.2769 155.854 36.3394V36.1325L157.36 35.4302C157.113 36.6377 156.66 40.1989 156.66 40.8099C156.66 41.0853 156.723 41.1743 156.84 41.1743C156.931 41.1743 157.113 41.0312 157.425 40.7065L157.553 40.8388ZM157.164 33.0656C157.321 33.0656 157.605 33.157 157.605 33.6622C157.605 34.0398 157.41 34.3008 157.1 34.3008C156.891 34.3008 156.632 34.195 156.632 33.7271C156.632 33.2087 156.905 33.0656 157.164 33.0656ZM158.958 35.7693H159.517L159.739 34.0518L160.53 33.7536L160.257 35.7693H161.361V36.159H160.205C159.841 38.7833 159.737 39.7972 159.737 40.5634C159.737 41.0565 159.853 41.1743 160.087 41.1743C160.36 41.1743 160.595 40.9278 161.051 40.4226L161.218 40.5778C160.791 41.214 160.36 41.825 159.739 41.825C159.349 41.825 158.959 41.4606 158.959 40.8905C158.959 40.1111 159.335 37.2234 159.467 36.159H158.958V35.7693ZM167.535 40.9939C167.17 41.3692 166.741 41.825 166.261 41.825C165.832 41.825 165.753 41.4089 165.753 40.9278C165.753 40.0702 166.325 37.0827 166.325 36.6665C166.325 36.509 166.261 36.4693 166.182 36.4693C165.39 36.4693 163.532 39.9151 163.257 41.6157L162.542 41.6951C162.763 39.8092 163.075 37.8356 163.27 36.1843L162.619 36.3394V36.1325L164.204 35.4302C163.972 36.5342 163.751 38.1194 163.581 39.4593H163.607C164.074 38.0689 165.634 35.56 166.7 35.56C167.064 35.56 167.168 35.7549 167.168 36.1963C167.168 36.7808 166.532 40.0041 166.532 40.7726C166.532 41.0192 166.621 41.1743 166.778 41.1743C166.959 41.1743 167.18 40.9795 167.363 40.8099L167.535 40.9939ZM172.059 40.2001C171.552 40.917 170.706 41.8262 169.772 41.8262C168.653 41.8262 168.473 40.84 168.473 39.9536C168.473 37.4194 170.279 35.4314 171.564 35.4314C172.137 35.4314 172.397 35.8848 172.397 36.4837C172.397 37.862 170.694 39.0588 169.356 39.3679C169.324 39.6139 169.311 39.8619 169.316 40.1099C169.316 40.8893 169.589 41.3054 170.07 41.3054C170.746 41.3054 171.475 40.5261 171.876 40.0438L172.059 40.2001ZM171.084 36.082C170.783 36.082 170.562 36.1337 170.29 36.3923C169.783 36.8878 169.459 38.1615 169.393 39.0046C170.642 38.6546 171.618 37.642 171.618 36.6533C171.617 36.2769 171.397 36.082 171.084 36.082ZM176.296 36.3406C175.932 36.2227 175.554 36.082 175.035 36.082C174.399 36.082 173.707 36.2516 173.707 36.9251C173.707 37.8079 176.138 38.6799 176.138 39.8357C176.138 41.0312 175.008 41.825 173.941 41.825C173.552 41.825 173.059 41.748 172.706 41.5123L172.837 40.7726C173.15 40.9422 173.565 41.1743 174.202 41.1743C174.994 41.1743 175.553 40.8099 175.553 40.2254C175.553 39.1983 173.124 38.4333 173.124 37.3028C173.124 36.1073 174.319 35.4302 175.254 35.4302C175.604 35.4302 176.111 35.5071 176.294 35.637V36.3406H176.296ZM180.621 36.3406C180.257 36.2227 179.882 36.082 179.36 36.082C178.724 36.082 178.034 36.2516 178.034 36.9251C178.034 37.8079 180.465 38.6799 180.465 39.8357C180.465 41.0312 179.333 41.825 178.266 41.825C177.879 41.825 177.384 41.748 177.034 41.5123L177.162 40.7726C177.475 40.9422 177.89 41.1743 178.527 41.1743C179.321 41.1743 179.881 40.8099 179.881 40.2254C179.881 39.1983 177.45 38.4333 177.45 37.3028C177.45 36.1073 178.645 35.4302 179.58 35.4302C179.932 35.4302 180.437 35.5071 180.62 35.637V36.3406H180.621ZM188.197 36.3406C187.833 36.2227 187.458 36.082 186.936 36.082C186.299 36.082 185.61 36.2516 185.61 36.9251C185.61 37.8079 188.04 38.6799 188.04 39.8357C188.04 41.0312 186.91 41.825 185.844 41.825C185.454 41.825 184.961 41.748 184.611 41.5123L184.74 40.7726C185.052 40.9422 185.467 41.1743 186.105 41.1743C186.898 41.1743 187.458 40.8099 187.458 40.2254C187.458 39.1983 185.027 38.4333 185.027 37.3028C185.027 36.1073 186.222 35.4302 187.157 35.4302C187.509 35.4302 188.015 35.5071 188.197 35.637V36.3406ZM191.899 35.4314C193.003 35.4314 193.316 36.5607 193.316 37.5361C193.316 39.357 192.261 41.825 190.418 41.825C189.402 41.825 189.039 40.7582 189.039 39.9007C189.038 38.4706 190.027 35.4314 191.899 35.4314ZM190.793 41.3066C191.093 41.3066 191.352 41.2008 191.572 40.9807C192.248 40.306 192.536 37.9523 192.536 37.4339C192.536 36.4068 192.106 36.0171 191.56 36.0171C190.976 36.0171 190.858 36.1975 190.468 36.9781C190.143 37.6287 189.817 38.9277 189.817 39.7479C189.805 40.5898 190.093 41.3066 190.793 41.3066ZM196.329 40.8508C195.809 41.4762 195.353 41.8262 195.042 41.8262C194.758 41.8262 194.574 41.6458 194.574 40.9807C194.574 40.6307 194.589 40.1496 194.666 39.5639L195.497 32.8575C195.285 32.9371 195.068 32.9982 194.846 33.0404V32.8311C195.29 32.6615 195.938 32.3777 196.369 32.1311L195.445 39.096C195.393 39.5519 195.302 40.4238 195.302 40.7738C195.302 41.1118 195.379 41.1755 195.471 41.1755C195.589 41.1755 195.681 41.0986 196.134 40.6969L196.329 40.8508ZM202.631 40.9025C202.215 41.3584 201.877 41.8262 201.409 41.8262C201.045 41.8262 200.813 41.5279 200.813 40.84C200.813 40.3589 200.916 39.3691 201.034 38.6041L201.009 38.5789C200.099 40.8268 199.372 41.8274 198.396 41.8274C198.007 41.8274 197.68 41.5147 197.68 40.9182C197.68 39.6709 198.278 36.5511 198.278 36.1867L197.628 36.3418V36.135L199.213 35.4326C198.915 36.7062 198.459 40.1123 198.459 40.6054C198.459 40.9182 198.565 41.0469 198.745 41.0469C199.812 41.0469 201.084 37.7466 201.449 35.797L202.203 35.5625C201.956 37.031 201.592 39.6312 201.592 40.8003C201.592 41.125 201.629 41.2417 201.747 41.2417C201.942 41.2417 202.215 40.917 202.41 40.7221L202.631 40.9025ZM204.077 35.7693H204.636L204.857 34.0518L205.649 33.7536L205.376 35.7693H206.482V36.159H205.324C204.96 38.7833 204.856 39.7972 204.856 40.5634C204.856 41.0565 204.974 41.1743 205.206 41.1743C205.482 41.1743 205.714 40.9278 206.17 40.4226L206.339 40.5778C205.91 41.214 205.482 41.825 204.857 41.825C204.468 41.825 204.078 41.4606 204.078 40.8905C204.078 40.1111 204.453 37.2234 204.586 36.159H204.078V35.7693H204.077ZM209.169 40.8388C208.896 41.2261 208.378 41.825 207.974 41.825C207.636 41.825 207.493 41.552 207.493 41.0709C207.493 40.3168 207.963 36.6004 208.118 36.159C207.897 36.2227 207.689 36.2769 207.467 36.3394V36.1325L208.975 35.4302C208.729 36.6377 208.273 40.1989 208.273 40.8099C208.273 41.0853 208.339 41.1743 208.456 41.1743C208.547 41.1743 208.729 41.0312 209.04 40.7065L209.169 40.8388ZM208.779 33.0656C208.937 33.0656 209.221 33.157 209.221 33.6622C209.221 34.0398 209.026 34.3008 208.713 34.3008C208.506 34.3008 208.245 34.195 208.245 33.7271C208.245 33.2087 208.518 33.0656 208.779 33.0656ZM212.834 35.4314C213.94 35.4314 214.251 36.5607 214.251 37.5361C214.251 39.357 213.198 41.825 211.354 41.825C210.339 41.825 209.976 40.7582 209.976 39.9007C209.975 38.4706 210.964 35.4314 212.834 35.4314ZM211.73 41.3066C211.875 41.3084 212.019 41.2805 212.153 41.2244C212.287 41.1683 212.408 41.0854 212.509 40.9807C213.185 40.306 213.47 37.9523 213.47 37.4339C213.47 36.4068 213.043 36.0171 212.495 36.0171C211.91 36.0171 211.795 36.1975 211.405 36.9781C211.079 37.6287 210.754 38.9277 210.754 39.7479C210.741 40.5898 211.027 41.3066 211.73 41.3066ZM220.593 40.9939C220.228 41.3692 219.801 41.825 219.319 41.825C218.889 41.825 218.811 41.4089 218.811 40.9278C218.811 40.0702 219.385 37.0827 219.385 36.6665C219.385 36.509 219.319 36.4693 219.242 36.4693C218.448 36.4693 216.59 39.9151 216.317 41.6157L215.602 41.6951C215.824 39.8092 216.133 37.8356 216.329 36.1843C216.108 36.236 215.902 36.2877 215.681 36.3394V36.1325L217.266 35.4302C217.031 36.5342 216.81 38.1194 216.64 39.4593H216.666C217.133 38.0689 218.693 35.56 219.759 35.56C220.123 35.56 220.227 35.7549 220.227 36.1963C220.227 36.7808 219.591 40.0041 219.591 40.7726C219.591 41.0192 219.682 41.1743 219.837 41.1743C220.02 41.1743 220.241 40.9795 220.422 40.8099L220.593 40.9939ZM225.014 36.3406C224.649 36.2227 224.272 36.082 223.752 36.082C223.116 36.082 222.427 36.2516 222.427 36.9251C222.427 37.8079 224.856 38.6799 224.856 39.8357C224.856 41.0312 223.727 41.825 222.66 41.825C222.27 41.825 221.777 41.748 221.427 41.5123L221.556 40.7726C221.869 40.9422 222.284 41.1743 222.921 41.1743C223.715 41.1743 224.272 40.8099 224.272 40.2254C224.272 39.1983 221.842 38.4333 221.842 37.3028C221.842 36.1073 223.038 35.4302 223.972 35.4302C224.322 35.4302 224.83 35.5071 225.012 35.637V36.3406H225.014Z" fill="black"/>
</svg>
